<svg width="20" height="20" viewBox="0 0 20 20" fill="none" xmlns="http://www.w3.org/2000/svg">
<path d="M18.1021 9.09863C17.9027 9.09801 17.7092 9.03154 17.5516 8.90961L9.98026 3.04104L2.40888 8.90961C2.21876 9.03819 1.98663 9.08962 1.75981 9.05341C1.53298 9.0172 1.32854 8.89608 1.18815 8.71473C1.04776 8.53339 0.981994 8.30547 1.00425 8.07743C1.0265 7.8494 1.1351 7.63841 1.30792 7.48747L9.42978 1.18686C9.58758 1.0657 9.78113 1 9.98026 1C10.1794 1 10.3729 1.0657 10.5307 1.18686L18.6526 7.48747C18.801 7.60237 18.9098 7.76062 18.9638 7.94014C19.0177 8.11966 19.0141 8.31149 18.9535 8.48888C18.8929 8.66627 18.7783 8.82037 18.6257 8.92968C18.473 9.03899 18.29 9.09805 18.1021 9.09863Z" fill="#C3C3C5"/>
<path d="M13.5908 18.9999H6.37135C5.65333 18.9999 4.96472 18.7154 4.45701 18.209C3.94929 17.7026 3.66406 17.0158 3.66406 16.2996V10.8991C3.66406 10.6604 3.75914 10.4315 3.92838 10.2627C4.09762 10.0939 4.32715 9.99902 4.56649 9.99902C4.80583 9.99902 5.03537 10.0939 5.20461 10.2627C5.37384 10.4315 5.46892 10.6604 5.46892 10.8991V16.2996C5.46892 16.5384 5.564 16.7673 5.73324 16.9361C5.90247 17.1049 6.13201 17.1997 6.37135 17.1997H13.5908C13.8301 17.1997 14.0597 17.1049 14.2289 16.9361C14.3981 16.7673 14.4932 16.5384 14.4932 16.2996V10.8991C14.4932 10.6604 14.5883 10.4315 14.7575 10.2627C14.9268 10.0939 15.1563 9.99902 15.3956 9.99902C15.635 9.99902 15.8645 10.0939 16.0338 10.2627C16.203 10.4315 16.2981 10.6604 16.2981 10.8991V16.2996C16.2981 17.0158 16.0128 17.7026 15.5051 18.209C14.9974 18.7154 14.3088 18.9999 13.5908 18.9999Z" fill="#C3C3C5"/>
</svg>
