<svg width="20" height="20" viewBox="0 0 20 20" fill="none" xmlns="http://www.w3.org/2000/svg">
<path d="M3.64453 9.10977C3.64453 9.10977 4.86997 11.1777 7.47402 12.5104C10.0781 13.8277 11.0891 11.8211 11.0891 11.8211C11.0891 11.8211 8.08674 11.2083 6.32517 8.6196C6.32517 8.6196 5.2376 7.3482 3.64453 9.10977Z" fill="#DCDCDD"/>
<path d="M2.00781 13.7674C2.00781 13.7674 3.60088 15.7587 5.68412 16.4327C8.47199 17.3212 9.62084 15.9579 9.62084 15.9579C9.62084 15.9579 6.78702 15.4371 4.91822 13.0321C4.91822 13.0168 3.60088 12.0058 2.00781 13.7674Z" fill="#DCDCDD"/>
<path d="M3.50781 17.6411C4.28903 18.5602 5.03961 19.0963 6.32632 19.6018C7.82748 20.1992 9.52778 19.9694 10.309 19.755C9.74223 19.6325 7.45985 19.1116 5.77487 17.1663C5.75955 17.1663 4.47284 16.8293 3.50781 17.6411Z" fill="#DCDCDD"/>
<path d="M3.51696 17.6431C3.86927 17.5512 5.27853 17.3061 7.9898 17.7503C9.96582 18.072 11.4057 18.6541 11.8959 18.8992C11.9265 18.9145 11.9572 18.9298 11.9878 18.9298C12.0491 18.9298 12.095 18.9145 12.141 18.8838C12.7231 18.5009 13.3358 17.9188 13.6268 17.5205C13.6421 17.4899 13.6421 17.4593 13.6421 17.444C13.6421 17.4286 13.6268 17.4133 13.5962 17.398C12.9375 17.0304 10.5632 15.9275 7.95917 15.6058C5.03344 15.2535 3.27187 15.4986 2.47534 15.6977C2.46002 15.6977 2.4447 15.713 2.42939 15.7283C2.41407 15.7437 2.41406 15.7743 2.41406 15.8049C2.56724 16.1726 2.98083 17.0304 3.51696 17.6431Z" fill="#C3C3C5"/>
<path d="M2.01106 13.7692C2.76164 13.6007 5.94777 12.9726 8.76628 13.4781C11.4469 13.953 13.8518 15.1937 14.6024 15.592C14.6177 15.592 14.6177 15.6073 14.6331 15.6073C14.6637 15.6073 14.6943 15.592 14.7096 15.546C14.9241 14.8874 15.0466 14.0755 15.062 13.5394C15.062 13.5241 15.062 13.5088 15.0466 13.4934C15.0466 13.4781 15.0313 13.4628 15.016 13.4628C14.5258 13.1411 12.1515 11.8238 8.73564 11.2723C5.76395 10.7975 2.89949 11.4561 2.30209 11.64C2.28678 11.64 2.27146 11.6553 2.25614 11.6706C2.24082 11.6859 2.2255 11.7012 2.2255 11.7319C2.08764 12.2374 1.94979 13.0492 2.01106 13.7692Z" fill="#C3C3C5"/>
<path d="M3.64844 9.11154C3.64844 9.11154 5.44064 8.59073 8.24382 8.97368C11.9967 9.49449 12.4563 8.26905 12.4563 8.26905C12.4563 8.26905 10.7253 6.70662 7.87619 6.96702C6.11462 7.1202 4.62879 8.03928 3.64844 9.11154Z" fill="#C3C3C5"/>
<path d="M10.512 0.0128174L10.3435 0.334491C9.80739 1.34548 9.60826 2.46369 9.71548 3.52063C9.8993 5.29751 10.9409 6.95186 12.6259 7.85562L12.7944 7.53393C13.4837 6.26254 13.6062 4.83798 13.2846 3.53595C12.9016 2.09606 11.9519 0.778716 10.512 0.0128174Z" fill="#C3C3C5"/>
<path d="M18.0016 6.24699C17.4961 7.18139 16.6843 7.84006 15.7499 8.14642C14.7542 8.48341 13.6207 8.40682 12.625 7.88601C13.1305 6.95161 13.9577 6.29295 14.8921 5.98659C15.8724 5.64959 17.0059 5.71087 18.0016 6.24699Z" fill="#C3C3C5"/>
</svg>
