<svg width="24" height="24" viewBox="0 0 24 24" fill="none" xmlns="http://www.w3.org/2000/svg">
<g clip-path="url(#clip0_6212_27712)">
<path fill-rule="evenodd" clip-rule="evenodd" d="M8.07833 1.86366C9.07647 0.865507 10.4607 0.428558 12.0002 0.428558C13.5396 0.428558 14.9239 0.865507 15.922 1.86366C16.9202 2.8618 17.3571 4.24605 17.3571 5.7855C17.3571 5.80574 17.3568 5.85414 17.3561 5.92339C17.9664 5.96358 18.5784 6.01056 19.1929 6.06439C21.235 6.24324 22.9171 7.80748 23.2131 9.8368C23.6902 13.1064 23.6902 16.211 23.2131 19.4806C22.9171 21.51 21.235 23.0743 19.1929 23.2531C14.3468 23.6775 9.65311 23.6775 4.80704 23.2531C2.76499 23.0743 1.08291 21.51 0.786788 19.4806C0.309678 16.211 0.309678 13.1064 0.786786 9.8368C1.08291 7.80748 2.76499 6.24324 4.80704 6.06439C5.42168 6.01055 6.03389 5.96354 6.64424 5.92336C6.64359 5.85525 6.64323 5.80691 6.64323 5.7855C6.64323 4.24605 7.08019 2.8618 8.07833 1.86366ZM9.21468 5.7942C11.0747 5.72999 12.9257 5.72999 14.7857 5.79422C14.7857 5.79093 14.7857 5.788 14.7857 5.7855C14.7857 4.71936 14.4898 4.068 14.1037 3.68193C13.7177 3.29586 13.0663 2.99999 12.0002 2.99999C10.934 2.99999 10.2827 3.29586 9.8966 3.68193C9.51055 4.068 9.21466 4.71936 9.21466 5.7855C9.21466 5.78803 9.21468 5.79095 9.21468 5.7942Z" fill="#C3C3C5"/>
<path fill-rule="evenodd" clip-rule="evenodd" d="M6.64286 5.92344C6.03297 5.9636 5.42124 6.01057 4.80708 6.06437C4.70374 6.07342 4.60135 6.08602 4.5 6.10203V23.2154C4.60135 23.2315 4.70374 23.244 4.80708 23.2531C5.42124 23.3069 6.03297 23.3539 6.64286 23.394V5.92344ZM19.4995 23.2155C19.3983 23.2315 19.296 23.244 19.193 23.2531C18.5786 23.3069 17.9667 23.3539 17.3566 23.394V5.9234C17.9667 5.96357 18.5786 6.01056 19.193 6.06437C19.296 6.0734 19.3983 6.08597 19.4995 6.10196V23.2155Z" fill="#F4F4F6"/>
</g>
<defs>
<clipPath id="clip0_6212_27712">
<rect width="24" height="24" fill="white"/>
</clipPath>
</defs>
</svg>
