<svg width="24" height="24" viewBox="0 0 24 24" fill="none" xmlns="http://www.w3.org/2000/svg">
<path fill-rule="evenodd" clip-rule="evenodd" d="M19.6075 2.78424C14.3838 2.36489 9.6167 2.36489 4.39298 2.78424C3.12982 2.88566 2.11169 3.87922 2.01626 5.14954C1.81001 7.895 1.70876 10.5635 1.71276 13.2347C1.70876 15.9059 1.81001 18.5746 2.01626 21.3201C2.11169 22.5903 3.12982 23.5839 4.39298 23.6854C9.6167 24.1047 14.3838 24.1047 19.6075 23.6854C20.8706 23.5839 21.8887 22.5903 21.9842 21.3201C22.1904 18.5746 22.2917 15.9059 22.2878 13.2347C22.2917 10.5635 22.1904 7.895 21.9842 5.14954C21.8887 3.87922 20.8706 2.88566 19.6075 2.78424ZM21.4307 13.2347L22.2878 13.2334V13.2347V13.236L21.4307 13.2347ZM2.5699 13.2347L1.71276 13.236L1.71276 13.2347L1.71276 13.2334L2.5699 13.2347Z" fill="#494B57"/>
<path d="M14.6313 0.0911526C16.6056 0.166294 17.7107 1.14862 17.7107 2.8428C17.7107 4.53698 16.6056 5.5193 14.6313 5.59443C11.438 5.71598 12.5633 5.71598 9.36992 5.59443C7.39561 5.5193 6.29053 4.53698 6.29053 2.8428C6.29053 1.14862 7.39561 0.166293 9.36992 0.0911521C12.5633 -0.0303842 11.438 -0.030384 14.6313 0.0911526Z" fill="#1B1E2D"/>
<path fill-rule="evenodd" clip-rule="evenodd" d="M8.16969 9.91821C7.57797 9.91821 7.09827 10.3979 7.09827 10.9896C7.09827 11.5814 7.57797 12.0611 8.16969 12.0611H15.8304C16.4221 12.0611 16.9019 11.5814 16.9019 10.9896C16.9019 10.3979 16.4221 9.91821 15.8304 9.91821H8.16969ZM8.16969 14.4718C7.57797 14.4718 7.09827 14.9515 7.09827 15.5432C7.09827 16.135 7.57797 16.6146 8.16969 16.6146H12.6161C13.2079 16.6146 13.6876 16.135 13.6876 15.5432C13.6876 14.9515 13.2079 14.4718 12.6161 14.4718H8.16969Z" fill="#1B1E2D"/>
</svg>
