<svg width="24" height="24" viewBox="0 0 24 24" fill="none" xmlns="http://www.w3.org/2000/svg">
<g clip-path="url(#clip0_6212_27613)">
<path fill-rule="evenodd" clip-rule="evenodd" d="M8.07833 1.86367C9.07647 0.865521 10.4607 0.428572 12.0002 0.428572C13.5396 0.428572 14.9239 0.865521 15.922 1.86367C16.9202 2.86181 17.3571 4.24606 17.3571 5.78551C17.3571 5.80575 17.3568 5.85415 17.3561 5.92341C17.9664 5.96359 18.5784 6.01058 19.1929 6.06441C21.235 6.24326 22.9171 7.80749 23.2131 9.83681C23.6902 13.1065 23.6902 16.2111 23.2131 19.4806C22.9171 21.51 21.235 23.0743 19.1929 23.2531C14.3468 23.6775 9.65311 23.6775 4.80704 23.2531C2.76499 23.0743 1.08291 21.51 0.786788 19.4806C0.309678 16.2111 0.309678 13.1065 0.786786 9.83681C1.08291 7.80749 2.76499 6.24326 4.80704 6.06441C5.42168 6.01056 6.03389 5.96355 6.64424 5.92337C6.64359 5.85526 6.64323 5.80692 6.64323 5.78551C6.64323 4.24606 7.08019 2.86181 8.07833 1.86367ZM9.21468 5.79422C11.0747 5.73 12.9257 5.73 14.7857 5.79423C14.7857 5.79094 14.7857 5.78801 14.7857 5.78551C14.7857 4.71938 14.4898 4.06802 14.1037 3.68194C13.7177 3.29587 13.0663 3 12.0002 3C10.934 3 10.2827 3.29587 9.8966 3.68194C9.51055 4.06802 9.21466 4.71938 9.21466 5.78551C9.21466 5.78805 9.21468 5.79096 9.21468 5.79422Z" fill="#B1E50E"/>
<path fill-rule="evenodd" clip-rule="evenodd" d="M6.64286 5.92344C6.03297 5.96361 5.42124 6.01058 4.80708 6.06437C4.70374 6.07342 4.60135 6.08602 4.5 6.10204V23.2154C4.60135 23.2315 4.70374 23.244 4.80708 23.2531C5.42124 23.3069 6.03297 23.3539 6.64286 23.394V5.92344ZM19.4995 23.2155C19.3983 23.2315 19.296 23.244 19.193 23.2531C18.5786 23.3069 17.9667 23.3539 17.3566 23.394V5.92341C17.9667 5.96357 18.5786 6.01056 19.193 6.06437C19.296 6.07341 19.3983 6.08597 19.4995 6.10197V23.2155Z" fill="#EFFACF"/>
</g>
<defs>
<clipPath id="clip0_6212_27613">
<rect width="24" height="24" fill="white"/>
</clipPath>
</defs>
</svg>
