<svg width="24" height="24" viewBox="0 0 24 24" fill="none" xmlns="http://www.w3.org/2000/svg">
<g clip-path="url(#clip0_6212_27937)">
<path d="M12 0.428574C10.0315 0.428574 8.11051 0.608556 6.26962 0.81375C3.40342 1.13323 1.10043 3.43423 0.793224 6.30563C0.597288 8.137 0.428589 10.0451 0.428589 12C0.428589 13.9549 0.597288 15.863 0.793224 17.6943C1.10043 20.5658 3.40342 22.8669 6.26962 23.1862C8.11051 23.3914 10.0315 23.5714 12 23.5714C13.9686 23.5714 15.8895 23.3914 17.7304 23.1862C20.5966 22.8669 22.8996 20.5658 23.2068 17.6943C23.4028 15.863 23.5714 13.9549 23.5714 12C23.5714 10.0451 23.4028 8.137 23.2068 6.30563C22.8996 3.43423 20.5966 1.13323 17.7304 0.81375C15.8895 0.608556 13.9686 0.428574 12 0.428574Z" fill="#494B57"/>
<path fill-rule="evenodd" clip-rule="evenodd" d="M15.4293 16.7144C15.4294 17.1088 15.6978 17.4561 16.086 17.5253C16.9265 17.6755 17.6461 17.6741 18.4886 17.5214C18.8663 17.4528 19.1317 17.1195 19.1464 16.7361C19.1576 16.4452 19.1697 16.1515 19.1819 15.8553C19.2332 14.6114 19.2861 13.3217 19.2861 12.0001C19.2861 10.6786 19.2332 9.38915 19.1819 8.14529L19.1723 7.91244C19.1409 7.14554 18.6114 6.45535 17.847 6.38587C17.5156 6.35575 17.1993 6.35575 16.8679 6.38587C16.1035 6.45535 15.5739 7.14554 15.5425 7.91244L15.5329 8.14505C15.4817 9.38896 15.4286 10.6785 15.4286 12.0001C15.4286 13.3653 15.4291 15.603 15.4293 16.7144ZM10.0717 16.7403C10.0716 17.1593 10.3743 17.5203 10.7908 17.567C11.6182 17.6599 12.383 17.6599 13.2104 17.567C13.6268 17.5203 13.9295 17.1595 13.9295 16.7404V13.8272C13.9295 13.0557 13.89 12.3004 13.8462 11.5672C13.7981 10.7624 13.2003 10.0679 12.3951 10.0276C12.1295 10.0143 11.872 10.0143 11.6065 10.0276C10.8012 10.0679 10.2034 10.7624 10.1554 11.5672C10.1116 12.3004 10.072 13.0557 10.072 13.8272L10.0717 16.7403ZM5.58823 17.5932C5.17594 17.5632 4.85253 17.2305 4.81272 16.819C4.76344 16.3095 4.71436 15.7822 4.71436 15.2424C4.71436 14.9497 4.72877 14.6608 4.74984 14.3764C4.81089 13.5519 5.47401 12.8756 6.30043 12.8529C6.53064 12.8466 6.75559 12.8466 6.98582 12.8529C7.81224 12.8756 8.47534 13.5519 8.53641 14.3764C8.55746 14.6608 8.57189 14.9497 8.57189 15.2424V16.7575C8.57189 17.1963 8.24044 17.5668 7.80266 17.5975C7.03485 17.651 6.36091 17.6496 5.58823 17.5932Z" fill="#1B1E2D"/>
</g>
<defs>
<clipPath id="clip0_6212_27937">
<rect width="24" height="24" fill="white"/>
</clipPath>
</defs>
</svg>
