<svg width="24" height="22" viewBox="0 0 24 22" fill="none" xmlns="http://www.w3.org/2000/svg">
<path fill-rule="evenodd" clip-rule="evenodd" d="M13.5629 1.21447C12.6361 0.547573 11.3643 0.547571 10.4374 1.21445L9.27823 2.04849C5.87544 4.4968 2.95784 7.50149 0.663714 10.9231L0.291834 11.4778C-0.508896 12.6721 0.454115 14.0898 1.74492 14.0898H2.97869C2.91065 15.6138 2.99954 17.1421 3.24518 18.6531C3.49688 20.2014 4.88383 21.2857 6.44552 21.2857H17.5547C19.1164 21.2857 20.5035 20.2014 20.7551 18.6531C21.0008 17.1421 21.0898 15.6138 21.0217 14.0898H22.2551C23.546 14.0898 24.5089 12.6721 23.7083 11.4778L23.3365 10.9233C21.0424 7.50154 18.1247 4.49678 14.7219 2.0484L13.5629 1.21447Z" fill="#C3C3C5"/>
<path fill-rule="evenodd" clip-rule="evenodd" d="M14.5713 21.2857V15.7679C14.5713 14.3477 13.4201 13.1964 11.9999 13.1964C10.5797 13.1964 9.42847 14.3477 9.42847 15.7679V21.2857H14.5713Z" fill="#F4F4F6"/>
</svg>
