<svg width="24" height="28" viewBox="0 0 24 28" fill="none" xmlns="http://www.w3.org/2000/svg">
<path d="M3.00879 12.391C3.00879 12.391 4.74409 15.2071 8.43161 17.0219C12.1191 18.8159 13.5507 16.0832 13.5507 16.0832C13.5507 16.0832 9.29926 15.2488 6.80476 11.7235C6.80476 11.7235 5.26468 9.99209 3.00879 12.391Z" fill="#DCDCDD"/>
<path d="M0.687744 18.7326C0.687744 18.7326 2.94364 21.4444 5.89365 22.3622C9.84146 23.5721 11.4683 21.7155 11.4683 21.7155C11.4683 21.7155 7.45542 21.0063 4.80909 17.7313C4.80909 17.7104 2.94364 16.3336 0.687744 18.7326Z" fill="#DCDCDD"/>
<path d="M2.81348 24.0101C3.91973 25.2617 4.98261 25.9918 6.80468 26.6802C8.93042 27.4938 11.3382 27.1809 12.4444 26.8888C11.6418 26.7219 8.40983 26.0127 6.02378 23.3635C6.00209 23.3635 4.18003 22.9045 2.81348 24.0101Z" fill="#DCDCDD"/>
<path d="M2.81348 24.0099C3.31238 23.8847 5.30798 23.551 9.14734 24.1559C11.9455 24.594 13.9845 25.3867 14.6786 25.7204C14.722 25.7413 14.7654 25.7621 14.8088 25.7621C14.8955 25.7621 14.9606 25.7413 15.0257 25.6996C15.8499 25.1781 16.7176 24.3854 17.1297 23.843C17.1514 23.8013 17.1514 23.7596 17.1514 23.7387C17.1514 23.7178 17.1297 23.697 17.0863 23.6761C16.1536 23.1755 12.7915 21.6736 9.10396 21.2355C4.96092 20.7557 2.46643 21.0895 1.33848 21.3607C1.31679 21.3607 1.2951 21.3815 1.27341 21.4024C1.25172 21.4232 1.25171 21.465 1.25171 21.5067C1.46862 22.0073 2.05429 23.1755 2.81348 24.0099Z" fill="#C3C3C5"/>
<path d="M1.02119 18.6301C2.08406 18.4006 6.59585 17.5454 10.587 18.2337C14.383 18.8804 17.7886 20.5701 18.8514 21.1124C18.8731 21.1124 18.8731 21.1333 18.8948 21.1333C18.9382 21.1333 18.9816 21.1124 19.0033 21.0499C19.3069 20.1529 19.4805 19.0473 19.5022 18.3172C19.5022 18.2963 19.5022 18.2755 19.4805 18.2546C19.4805 18.2337 19.4588 18.2129 19.4371 18.2129C18.743 17.7748 15.3808 15.9809 10.5437 15.2299C6.33555 14.5832 2.27928 15.4802 1.43332 15.7305C1.41163 15.7305 1.38994 15.7514 1.36825 15.7723C1.34655 15.7931 1.32486 15.814 1.32486 15.8557C1.12964 16.5441 0.934426 17.6497 1.02119 18.6301Z" fill="#C3C3C5"/>
<path d="M3.00854 12.3908C3.00854 12.3908 5.54643 11.6816 9.51593 12.2031C14.8303 12.9123 15.481 11.2435 15.481 11.2435C15.481 11.2435 13.0299 9.11579 8.99533 9.47041C6.50084 9.67901 4.39679 10.9306 3.00854 12.3908Z" fill="#C3C3C5"/>
<path d="M12.7264 0L12.4878 0.438057C11.7286 1.81482 11.4466 3.33761 11.5985 4.77696C11.8588 7.19673 13.3338 9.44962 15.7198 10.6804L15.9584 10.2423C16.9345 8.51091 17.108 6.57093 16.6525 4.79782C16.1103 2.83697 14.7654 1.043 12.7264 0Z" fill="#C3C3C5"/>
<path d="M23.3334 8.49052C22.6175 9.76299 21.4679 10.66 20.1448 11.0772C18.7348 11.5361 17.1297 11.4318 15.7197 10.7225C16.4355 9.45008 17.6069 8.5531 18.93 8.1359C20.3183 7.67698 21.9234 7.76042 23.3334 8.49052Z" fill="#C3C3C5"/>
</svg>
