<svg width="24" height="24" viewBox="0 0 24 24" fill="none" xmlns="http://www.w3.org/2000/svg">
<g clip-path="url(#clip0_6212_27744)">
<path d="M11.9999 0.428589C10.0313 0.428589 8.11039 0.608572 6.2695 0.813765C3.4033 1.13324 1.10031 3.43425 0.793102 6.30564C0.597166 8.13701 0.428467 10.0451 0.428467 12C0.428467 13.9549 0.597166 15.863 0.793102 17.6944C1.10031 20.5658 3.4033 22.8669 6.2695 23.1862C8.11039 23.3914 10.0313 23.5714 11.9999 23.5714C13.9684 23.5714 15.8894 23.3914 17.7302 23.1862C20.5965 22.8669 22.8995 20.5658 23.2067 17.6944C23.4026 15.863 23.5713 13.9549 23.5713 12C23.5713 10.0451 23.4026 8.13701 23.2067 6.30564C22.8995 3.43425 20.5965 1.13324 17.7302 0.813765C15.8894 0.608572 13.9684 0.428589 11.9999 0.428589Z" fill="#C3C3C5"/>
<path fill-rule="evenodd" clip-rule="evenodd" d="M15.4291 16.7144C15.4292 17.1088 15.6976 17.4561 16.0858 17.5253C16.9263 17.6755 17.6458 17.6741 18.4884 17.5214C18.8661 17.4528 19.1314 17.1195 19.1462 16.7361C19.1573 16.4452 19.1695 16.1515 19.1817 15.8553C19.2329 14.6114 19.2859 13.3217 19.2859 12.0001C19.2859 10.6786 19.2329 9.38915 19.1817 8.14529L19.1721 7.91244C19.1407 7.14554 18.6111 6.45535 17.8467 6.38587C17.5154 6.35575 17.1991 6.35575 16.8676 6.38587C16.1032 6.45535 15.5736 7.14554 15.5422 7.91244L15.5327 8.14505C15.4815 9.38896 15.4284 10.6785 15.4284 12.0001C15.4284 13.3653 15.4288 15.603 15.4291 16.7144ZM10.0714 16.7403C10.0713 17.1593 10.3741 17.5203 10.7906 17.567C11.618 17.6599 12.3828 17.6599 13.2102 17.567C13.6266 17.5203 13.9293 17.1595 13.9293 16.7404V13.8272C13.9293 13.0557 13.8897 12.3004 13.846 11.5672C13.7979 10.7624 13.2001 10.0679 12.3948 10.0276C12.1293 10.0143 11.8718 10.0143 11.6063 10.0276C10.801 10.0679 10.2032 10.7624 10.1551 11.5672C10.1114 12.3004 10.0718 13.0557 10.0718 13.8272L10.0714 16.7403ZM5.58799 17.5932C5.1757 17.5632 4.85228 17.2305 4.81248 16.819C4.76319 16.3095 4.71411 15.7822 4.71411 15.2424C4.71411 14.9497 4.72853 14.6608 4.7496 14.3764C4.81064 13.5519 5.47376 12.8756 6.30019 12.8529C6.5304 12.8466 6.75535 12.8466 6.98557 12.8529C7.812 12.8756 8.4751 13.5519 8.53616 14.3764C8.55721 14.6608 8.57165 14.9497 8.57165 15.2424V16.7575C8.57165 17.1963 8.24019 17.5668 7.80241 17.5975C7.0346 17.651 6.36067 17.6496 5.58799 17.5932Z" fill="#F4F4F6"/>
</g>
<defs>
<clipPath id="clip0_6212_27744">
<rect width="24" height="24" fill="white"/>
</clipPath>
</defs>
</svg>
