<svg width="22" height="24" viewBox="0 0 22 24" fill="none" xmlns="http://www.w3.org/2000/svg">
<path fill-rule="evenodd" clip-rule="evenodd" d="M18.6075 2.78424C13.3838 2.36489 8.6167 2.36489 3.39298 2.78424C2.12982 2.88566 1.11169 3.87922 1.01626 5.14954C0.810012 7.895 0.708758 10.5635 0.712761 13.2347C0.708758 15.9059 0.810012 18.5746 1.01626 21.3201C1.11169 22.5903 2.12982 23.5839 3.39298 23.6854C8.6167 24.1047 13.3838 24.1047 18.6075 23.6854C19.8706 23.5839 20.8887 22.5903 20.9842 21.3201C21.1904 18.5746 21.2917 15.9059 21.2878 13.2347C21.2917 10.5635 21.1904 7.895 20.9842 5.14954C20.8887 3.87922 19.8706 2.88566 18.6075 2.78424ZM20.4307 13.2347L21.2878 13.2334V13.2347V13.236L20.4307 13.2347ZM1.5699 13.2347L0.712762 13.236L0.712761 13.2347L0.712762 13.2334L1.5699 13.2347Z" fill="#B1E50E"/>
<path d="M13.6313 0.0911526C15.6056 0.166294 16.7107 1.14862 16.7107 2.8428C16.7107 4.53698 15.6056 5.5193 13.6313 5.59443C10.438 5.71598 11.5633 5.71598 8.36992 5.59443C6.39561 5.5193 5.29053 4.53698 5.29053 2.8428C5.29053 1.14862 6.39561 0.166293 8.36992 0.0911521C11.5633 -0.0303842 10.438 -0.030384 13.6313 0.0911526Z" fill="#EFFACF"/>
<path fill-rule="evenodd" clip-rule="evenodd" d="M7.16957 9.91821C6.57785 9.91821 6.09814 10.3979 6.09814 10.9896C6.09814 11.5814 6.57785 12.0611 7.16957 12.0611H14.8303C15.422 12.0611 15.9017 11.5814 15.9017 10.9896C15.9017 10.3979 15.422 9.91821 14.8303 9.91821H7.16957ZM7.16957 14.4718C6.57785 14.4718 6.09814 14.9515 6.09814 15.5432C6.09814 16.135 6.57785 16.6146 7.16957 16.6146H11.616C12.2077 16.6146 12.6874 16.135 12.6874 15.5432C12.6874 14.9515 12.2077 14.4718 11.616 14.4718H7.16957Z" fill="#EFFACF"/>
</svg>
