<svg width="24" height="24" viewBox="0 0 24 24" fill="none" xmlns="http://www.w3.org/2000/svg">
<g clip-path="url(#clip0_8019_123539)">
<path fill-rule="evenodd" clip-rule="evenodd" d="M21.9688 13.7427C22.8302 13.2903 23.4382 12.4815 23.5212 11.4917C23.5538 11.1037 23.5714 10.7106 23.5714 10.3117C23.5714 9.91277 23.5538 9.51965 23.5212 9.13172C23.3956 7.63347 22.0672 6.55001 20.4775 6.48941C17.749 6.38542 13.9296 6.33755 12 6.33755C10.0704 6.33755 6.25106 6.38542 3.52257 6.48941C1.93286 6.55001 0.604396 7.63347 0.478838 9.13172C0.446328 9.51965 0.428589 9.91277 0.428589 10.3117C0.428589 10.7106 0.44633 11.1037 0.478841 11.4917C0.561749 12.481 1.16912 13.2894 2.02987 13.742C1.99239 14.4262 1.97211 15.1187 1.97211 15.8205C1.97211 17.0042 2.0298 18.1618 2.13046 19.2974C2.32524 21.4946 4.06183 23.2207 6.26151 23.3849C7.95375 23.5113 9.84309 23.5704 11.9993 23.5704C14.1556 23.5704 16.0449 23.5113 17.737 23.3849C19.9368 23.2207 21.6734 21.4946 21.8681 19.2974C21.9688 18.1618 22.0265 17.0042 22.0265 15.8205C22.0265 15.119 22.0063 14.4267 21.9688 13.7427Z" fill="#494B57"/>
<path fill-rule="evenodd" clip-rule="evenodd" d="M2.89655 2.569C4.45243 -0.18593 8.52808 -0.297825 10.2604 2.33584L12 4.98042L13.7396 2.33584C15.4725 -0.298694 19.5503 -0.185856 21.105 2.57173C21.8318 3.85324 21.7388 5.36435 21.0249 6.55203C20.8472 6.51772 20.6641 6.49652 20.4776 6.48942C19.4056 6.44855 18.1653 6.41637 16.9375 6.39234C16.9627 6.37873 16.9886 6.36585 17.015 6.35377L18.1223 5.84769C18.9842 5.45367 19.2356 4.48593 18.8675 3.83888L18.8651 3.83463C18.266 2.77191 16.5744 2.70537 15.8879 3.74898L14.1765 6.3508C13.3339 6.34189 12.5812 6.33755 12.0001 6.33755C11.4189 6.33755 10.6662 6.34189 9.82356 6.3508L8.11212 3.74898C7.42567 2.70537 5.73412 2.77191 5.13494 3.83463L5.13185 3.84008C4.77439 4.46692 5.02336 5.45715 5.87779 5.84769L6.98501 6.35377C7.01145 6.36585 7.03728 6.37873 7.0625 6.39234C5.83466 6.41637 4.59446 6.44855 3.52262 6.48942C3.33827 6.49643 3.15742 6.51723 2.98156 6.55081C2.26639 5.35408 2.17711 3.83301 2.89655 2.569ZM3.50657 14.1333C2.97252 14.1108 2.46835 13.9727 2.02989 13.7424C1.99243 14.4264 1.97217 15.1188 1.97217 15.8204C1.97217 15.8876 1.97236 15.9548 1.97273 16.0219C2.4486 16.1703 2.94374 16.2563 3.44018 16.2752C5.84213 16.3668 9.06369 16.4151 11.1446 16.4262V23.5672C11.4248 23.5694 11.7097 23.5704 11.9994 23.5704C12.2907 23.5704 12.5771 23.5694 12.8589 23.5672V16.4262C14.94 16.415 18.1583 16.3667 20.5583 16.2752C21.0549 16.2563 21.55 16.1703 22.0261 16.0219C22.0264 15.9548 22.0266 15.8876 22.0266 15.8204C22.0266 15.1189 22.0064 14.4266 21.9688 13.7427C21.5264 13.9751 21.017 14.1134 20.4776 14.134C17.7491 14.238 13.9297 14.2858 12.0001 14.2858C10.0705 14.2858 6.25111 14.238 3.52262 14.134C3.52235 14.134 3.52289 14.134 3.52262 14.134" fill="#1B1E2D"/>
</g>
<defs>
<clipPath id="clip0_8019_123539">
<rect width="24" height="24" fill="white"/>
</clipPath>
</defs>
</svg>
