<svg width="24" height="24" viewBox="0 0 24 24" fill="none" xmlns="http://www.w3.org/2000/svg">
<g clip-path="url(#clip0_6215_90578)">
<path fill-rule="evenodd" clip-rule="evenodd" d="M13.5629 2.21447C12.6361 1.54757 11.3643 1.54757 10.4374 2.21445L9.27823 3.04849C5.87544 5.4968 2.95784 8.50149 0.663714 11.9231L0.291834 12.4778C-0.508896 13.6721 0.454115 15.0898 1.74492 15.0898H2.97869C2.91065 16.6138 2.99954 18.1421 3.24518 19.6531C3.49688 21.2014 4.88383 22.2857 6.44552 22.2857H17.5547C19.1164 22.2857 20.5035 21.2014 20.7551 19.6531C21.0008 18.1421 21.0898 16.6138 21.0217 15.0898H22.2551C23.546 15.0898 24.5089 13.6721 23.7083 12.4778L23.3365 11.9233C21.0424 8.50154 18.1247 5.49678 14.7219 3.0484L13.5629 2.21447Z" fill="#BDE14A"/>
<path fill-rule="evenodd" clip-rule="evenodd" d="M14.5713 22.2857V16.7679C14.5713 15.3477 13.4201 14.1964 11.9999 14.1964C10.5797 14.1964 9.42847 15.3477 9.42847 16.7679V22.2857H14.5713Z" fill="#EFFACF"/>
</g>
<defs>
<clipPath id="clip0_6215_90578">
<rect width="24" height="24" fill="white"/>
</clipPath>
</defs>
</svg>
