<svg width="24" height="24" viewBox="0 0 24 24" fill="none" xmlns="http://www.w3.org/2000/svg">
<g clip-path="url(#clip0_6212_27997)">
<path fill-rule="evenodd" clip-rule="evenodd" d="M13.563 2.21446C12.6362 1.54757 11.3644 1.54756 10.4375 2.21444L9.27835 3.04848C5.87556 5.49679 2.95797 8.50148 0.663836 11.9231L0.291956 12.4778C-0.508773 13.6721 0.454237 15.0898 1.74504 15.0898H2.97881C2.91077 16.6138 2.99966 18.1421 3.2453 19.6531C3.49701 21.2014 4.88395 22.2857 6.44565 22.2857H17.5549C19.1166 22.2857 20.5036 21.2014 20.7553 19.6531C21.0009 18.1421 21.0899 16.6138 21.0218 15.0898H22.2553C23.5461 15.0898 24.509 13.6721 23.7085 12.4778L23.3366 11.9233C21.0426 8.50154 18.1249 5.49677 14.7221 3.04839L13.563 2.21446Z" fill="#494B57"/>
<path fill-rule="evenodd" clip-rule="evenodd" d="M14.5714 22.2857V16.7679C14.5714 15.3477 13.4202 14.1964 12 14.1964C10.5799 14.1964 9.42859 15.3477 9.42859 16.7679V22.2857H14.5714Z" fill="#1B1E2D"/>
</g>
<defs>
<clipPath id="clip0_6212_27997">
<rect width="24" height="24" fill="white"/>
</clipPath>
</defs>
</svg>
