<svg width="24" height="24" viewBox="0 0 24 24" fill="none" xmlns="http://www.w3.org/2000/svg">
<g clip-path="url(#clip0_8019_118519)">
<path fill-rule="evenodd" clip-rule="evenodd" d="M21.9686 13.7427C22.8301 13.2903 23.4381 12.4815 23.5211 11.4917C23.5537 11.1037 23.5713 10.7106 23.5713 10.3117C23.5713 9.91277 23.5537 9.51965 23.5211 9.13172C23.3954 7.63347 22.067 6.55001 20.4774 6.48941C17.7489 6.38542 13.9295 6.33755 11.9999 6.33755C10.0703 6.33755 6.25094 6.38542 3.52244 6.48941C1.93274 6.55001 0.604274 7.63347 0.478716 9.13172C0.446206 9.51965 0.428467 9.91277 0.428467 10.3117C0.428467 10.7106 0.446208 11.1037 0.478719 11.4917C0.561627 12.481 1.169 13.2894 2.02975 13.742C1.99227 14.4262 1.97199 15.1187 1.97199 15.8205C1.97199 17.0042 2.02968 18.1618 2.13034 19.2974C2.32512 21.4946 4.06171 23.2207 6.26139 23.3849C7.95363 23.5113 9.84296 23.5704 11.9992 23.5704C14.1554 23.5704 16.0448 23.5113 17.7369 23.3849C19.9367 23.2207 21.6733 21.4946 21.868 19.2974C21.9686 18.1618 22.0264 17.0042 22.0264 15.8205C22.0264 15.119 22.0062 14.4267 21.9686 13.7427Z" fill="#C3C3C5"/>
<path fill-rule="evenodd" clip-rule="evenodd" d="M2.8963 2.569C4.45219 -0.18593 8.52783 -0.297825 10.2602 2.33584L11.9998 4.98042L13.7393 2.33584C15.4723 -0.298694 19.5501 -0.185856 21.1047 2.57173C21.8316 3.85324 21.7385 5.36435 21.0247 6.55203C20.8469 6.51772 20.6638 6.49652 20.4773 6.48942C19.4054 6.44855 18.1651 6.41637 16.9373 6.39234C16.9625 6.37873 16.9883 6.36585 17.0148 6.35377L18.1221 5.84769C18.984 5.45367 19.2353 4.48593 18.8673 3.83888L18.8649 3.83463C18.2657 2.77191 16.5741 2.70537 15.8876 3.74898L14.1762 6.3508C13.3336 6.34189 12.581 6.33755 11.9998 6.33755C11.4186 6.33755 10.666 6.34189 9.82332 6.3508L8.11188 3.74898C7.42543 2.70537 5.73387 2.77191 5.1347 3.83463L5.13161 3.84008C4.77415 4.46692 5.02311 5.45715 5.87755 5.84769L6.98477 6.35377C7.0112 6.36585 7.03704 6.37873 7.06225 6.39234C5.83441 6.41637 4.59422 6.44855 3.52238 6.48942C3.33802 6.49643 3.15718 6.51723 2.98131 6.55081C2.26615 5.35408 2.17687 3.83301 2.8963 2.569ZM3.50633 14.1333C2.97228 14.1108 2.46811 13.9727 2.02964 13.7424C1.99219 14.4264 1.97192 15.1188 1.97192 15.8204C1.97192 15.8876 1.97211 15.9548 1.97249 16.0219C2.44836 16.1703 2.9435 16.2563 3.43994 16.2752C5.84189 16.3668 9.06344 16.4151 11.1444 16.4262V23.5672C11.4246 23.5694 11.7094 23.5704 11.9991 23.5704C12.2904 23.5704 12.5769 23.5694 12.8586 23.5672V16.4262C14.9397 16.415 18.1581 16.3667 20.5581 16.2752C21.0547 16.2563 21.5498 16.1703 22.0258 16.0219C22.0262 15.9548 22.0263 15.8876 22.0263 15.8204C22.0263 15.1189 22.0061 14.4266 21.9686 13.7427C21.5261 13.9751 21.0168 14.1134 20.4773 14.134C17.7489 14.238 13.9294 14.2858 11.9998 14.2858C10.0702 14.2858 6.25087 14.238 3.52238 14.134C3.5221 14.134 3.52265 14.134 3.52238 14.134" fill="#F4F4F6"/>
</g>
<defs>
<clipPath id="clip0_8019_118519">
<rect width="24" height="24" fill="white"/>
</clipPath>
</defs>
</svg>
