<svg width="20" height="20" viewBox="0 0 20 20" fill="none" xmlns="http://www.w3.org/2000/svg">
<path d="M3.64844 9.11056C3.64844 9.11056 4.8738 11.1784 7.47768 12.5109C10.0816 13.8282 11.0925 11.8217 11.0925 11.8217C11.0925 11.8217 8.09036 11.209 6.32891 8.62043C6.32891 8.62043 5.2414 7.34911 3.64844 9.11056Z" fill="#323542"/>
<path d="M2.01172 13.7672C2.01172 13.7672 3.60469 15.7584 5.68779 16.4324C8.47549 17.3207 9.62426 15.9575 9.62426 15.9575C9.62426 15.9575 6.79062 15.4368 4.92195 13.032C4.92195 13.0167 3.60469 12.0057 2.01172 13.7672Z" fill="#323542"/>
<path d="M3.51172 17.6408C4.29289 18.5599 5.04342 19.096 6.33005 19.6014C7.83111 20.1988 9.5313 19.969 10.3125 19.7546C9.74574 19.632 7.4635 19.1113 5.77863 17.166C5.76331 17.166 4.47669 16.829 3.51172 17.6408Z" fill="#323542"/>
<path d="M3.51298 17.6442C3.86527 17.5523 5.27444 17.3072 7.98554 17.7514C9.96144 18.073 11.4012 18.6551 11.8914 18.9002C11.922 18.9155 11.9526 18.9308 11.9833 18.9308C12.0445 18.9308 12.0905 18.9155 12.1364 18.8848C12.7185 18.5019 13.3312 17.9199 13.6222 17.5216C13.6375 17.491 13.6375 17.4604 13.6375 17.445C13.6375 17.4297 13.6222 17.4144 13.5916 17.3991C12.9329 17.0315 10.5588 15.9287 7.95491 15.607C5.02936 15.2547 3.26791 15.4998 2.47143 15.6989C2.45611 15.6989 2.4408 15.7142 2.42548 15.7295C2.41016 15.7449 2.41016 15.7755 2.41016 15.8061C2.56333 16.1737 2.97689 17.0315 3.51298 17.6442Z" fill="#494B57"/>
<path d="M2.00715 13.77C2.75768 13.6015 5.94361 12.9735 8.76194 13.4789C11.4424 13.9538 13.8472 15.1944 14.5977 15.5927C14.613 15.5927 14.613 15.608 14.6283 15.608C14.659 15.608 14.6896 15.5927 14.7049 15.5467C14.9194 14.8881 15.0419 14.0763 15.0572 13.5402C15.0572 13.5249 15.0572 13.5096 15.0419 13.4943C15.0419 13.4789 15.0266 13.4636 15.0113 13.4636C14.5211 13.142 12.147 11.8247 8.7313 11.2733C5.75981 10.7985 2.89553 11.4571 2.29817 11.6409C2.28285 11.6409 2.26754 11.6562 2.25222 11.6715C2.2369 11.6869 2.22158 11.7022 2.22158 11.7328C2.08373 12.2383 1.94588 13.0501 2.00715 13.77Z" fill="#494B57"/>
<path d="M3.64453 9.11213C3.64453 9.11213 5.43662 8.59136 8.23963 8.97428C11.9923 9.49506 12.4518 8.2697 12.4518 8.2697C12.4518 8.2697 10.721 6.70736 7.87201 6.96775C6.11056 7.12092 4.62482 8.03994 3.64453 9.11213Z" fill="#494B57"/>
<path d="M10.5042 0.0146484L10.3357 0.336301C9.79957 1.34722 9.60045 2.46537 9.70767 3.52224C9.89147 5.29901 10.933 6.95325 12.6179 7.85695L12.7864 7.53529C13.4756 6.26398 13.5982 4.8395 13.2765 3.53756C12.8936 2.09776 11.944 0.780498 10.5042 0.0146484Z" fill="#494B57"/>
<path d="M17.9974 6.24904C17.4919 7.18338 16.6801 7.842 15.7458 8.14834C14.7502 8.48531 13.6167 8.40873 12.6211 7.88795C13.1266 6.95361 13.9537 6.29499 14.888 5.98865C15.8683 5.65168 17.0017 5.71295 17.9974 6.24904Z" fill="#494B57"/>
</svg>
